<svg xmlns="http://www.w3.org/2000/svg" version="1.1" xmlns:xlink="http://www.w3.org/1999/xlink" xmlns:svgjs="http://svgjs.dev/svgjs" viewBox="0 0 800 800"><defs><linearGradient x1="50%" y1="0%" x2="50%" y2="100%" id="ssscribble-grad"><stop stop-color="hsl(206, 75%, 49%)" stop-opacity="1" offset="0%"></stop><stop stop-color="hsl(331, 90%, 56%)" stop-opacity="1" offset="100%"></stop></linearGradient></defs><g fill="none" stroke-width="1.5" stroke="url(#ssscribble-grad)" stroke-linecap="round"><path d="M903.77 594.42C740.15 627.28 649.46 643.47 671.33 636.94 790.15 622.66 935.34 577 1034.88 505.95 1051.45 450.43 975.52 419.37 843.49 458.08 695.02 577.57 577.39 759.24 512.09 926.79 501.93 979.61 534.07 881.75 584.42 693.68 647.53 588.14 696.32 673.41 723.08 908.74 739.1 1073.01 734.1 1000.19 714.49 761.12 690.14 646.05 659.59 803.74 626.73 1052.83 593.87 1070.75 560.25 837.18 522.63 647.31 480.27 715.59 425.49 942.69 352.52 1064.48 268.82 957.47 165.91 726.06 52.15 574.5 -48.84 602.84 -128.15 757 -161.06 898.25 -138.83 941.99 -60.16 858.93 54.08 710.37 151.9 544.64 198.35 424.82 157.7 360.54 34.07 340.24 -129.81 346.31 -261.32 352.29 -295.87 366.15 -211.84 359.97 -48.22 327.12 99.94 294.26 153.89 236.28 94.6 160.45 -114.31 59.57 -184.85 30.13 11.77 178.06 153.82 275.99 250.53 311.9 289.36 225.12 272.7 40.81 221.51 -152.31 161.72 -214.9 97.58 -97.59 54.81 104.34 37.24 187.3 33.5 41.47 49.57 -204.33 77.15 -285.34 109.65 -108.2 144.5 118.72 177.36 100.89 210.22 -148.17 239.54 -299.27 269.01 -171.57 303.4 80.18 347.11 171.75 407.8 31.6 482.32 -179.64 579.21 -235.48 693.99 -95.75 804.42 126.53 902.79 263.38 962.52 253.66 966.76 129.19 909.01 -5.3 801.18 -74.16 691.16 -62.25 615.83 22.89 620.48 135.36 717.32 263.35 875.27 368.8 1027.26 445.06 1099.22 513.58 1051.94 561.55 903.77 594.42Q903.77 594.42 903.77 594.42" opacity="0.45"></path><path d="M869.77 348.07C668.86 381.02 779.84 350.47 959.79 345.36 1017.65 386.08 994.42 476.78 905.46 621.07 775.97 774.13 644.66 899.11 540.13 928.48 459.71 764.73 504.5 668.05 554.76 970.78 595.19 970.49 590.79 703.3 551.65 1018.83 521.13 1046.14 478.81 842.28 424.25 636.02 367.57 633.08 295.9 819.06 210.68 996.03 126.61 1005.98 38.2 838.5 -41.01 634.4 -94.07 524.32 -112.85 563.74 -84.94 690.37 -20.4 828.61 74.72 890.11 172.44 861.83 229.63 761.34 225.49 631.33 145.26 511.72 9.16 402.3 -140.61 326.24 -243.98 275.67 -256.36 235.2 -167.71 203.53 -14.22 173.01 125.85 142.5 187.85 114.59 151.28 97.5 35.22 90.52 -99.93 111.07 -196.04 167.59 -223 234.33 -168.4 314.09 -57.73 367.58 79.53 348.85 203.5 243.56 290.54 65.34 334.45 -101.29 336.38 -176.92 312.31 -98.64 266.72 73.67 222.16 213.81 189.77 181.53 154.09 -119.46 171.27 63.26 211.87 134.89 242.39 -95.21 281.79 -259.88 331.38 -185.39 383.92 46.37 451.16 203.41 533.86 156.3 619.12 -35.52 713.94 -185.23 806.55 -175.11 877.66 -16.52 919.53 179.6 915.62 303.39 868.57 314.05 780.78 232.89 675.28 126.87 596.38 29.59 569.15 -10.87 618.47 1.27 736.95 51.75 889.48 122.24 1017.31 189.67 1065.66 262.84 1009.85 317.55 869.77 348.07Q869.77 348.07 869.77 348.07" opacity="0.38"></path><path d="M835.77 173.73C692.77 201.89 595.96 228.72 578.12 261 642.16 302.2 754.92 364.39 870.38 457.2 956.22 564.67 979.84 691.87 940.7 809.96 851.07 875.71 735.43 867.03 620.65 769.98 518.19 636.31 445.39 525.04 402.45 521.34 386.2 751.24 418.94 881.48 425.65 610 427.26 596.25 414.76 774.05 386.59 984.83 358.42 1019.98 315.92 847.26 261.2 637.33 207.38 572.25 144.12 695.35 77.6 883.15 20.46 989.14 -27.31 928.9 -53.77 757.09 -54.25 573.78 -21.88 481.1 43.66 498.95 121.51 601.98 203.76 719.92 264.06 799.7 273.88 830.1 224.99 800.26 118.51 735.38 -17.59 645.01 -146.37 556.56 -221.29 484.67 -214.32 412.67 -123.21 361.88 19.77 333.71 151.27 305.54 219.18 301.32 203.27 320.19 112.36 338.96 -10.45 376.17 -117.67 417.74 -180.44 433.81 -174.97 417.29 -109.69 343.49 -1.66 220.31 120.07 61.94 229.88 -78.01 318.21 -132.81 372.43 -73.55 396.76 80.41 395.19 222.91 379.55 257.92 361.67 131.32 329.1 -146.69 323.52 120.44 358 168.89 386.16 -41.86 428.55 -214 483.74 -189.43 538.9 4.39 605.7 197.46 679.3 242.45 745.99 120.82 808.02 -55.46 853 -155.28 872.08 -122.27 858.29 22.38 806.88 192.98 733.99 326.95 645.64 376.07 566.94 353.73 530.99 279.05 550.78 198.24 634.2 139.57 762.07 95.58 900.91 84.63 1002.69 96.54 1029.47 117.39 967.27 145.56 835.77 173.73Q835.77 173.73 835.77 173.73" opacity="0.22"></path><path d="M801.77 313.19C669.62 339.01 572.91 384.92 539.8 450.24 577.41 516.4 665.88 600.13 772.07 691.15 870.99 764.47 929.44 815.17 937.03 817.95 896.9 770.02 818.59 670.96 721.85 551.01 616.34 474.17 521.4 477.63 445.25 587.94 384.98 761.65 344.71 920.57 318.73 966.42 298.46 776.94 263.51 670.21 229.49 950.83 203.67 992.23 169.66 851.01 130.42 649.05 93.79 536.2 57.28 587.04 27.57 745.01 8.81 902.71 6.56 950.3 27.04 870.86 63.39 708 121.26 546.44 192.93 448.1 255.83 431.98 303.53 485.4 316.78 566.89 282.31 658.63 200.7 720.94 82.85 746.84 -42.25 748.27 -145.42 724.43 -193 690.37 -169.85 649.02 -78.37 612.15 53.77 586.33 176.21 560.5 247.89 546.96 250.13 539.62 184.78 524.98 80.67 501.86 -25.97 455.7 -111.09 385.07 -146.51 280.25 -128.71 148.72 -64.94 27.43 29.41 -63.07 133.18 -80.82 237.31 -16.34 323.9 114.59 387.98 250.57 432.96 303.16 458.59 232.45 472.39 55.84 475.67 -121.06 477.66 -186.64 484.44 -83.8 489.08 108.19 503.17 244.21 528.99 202.88 554.81 11.74 591.13 -161.96 635.19 -181.35 677.1 -37.48 722.09 160.31 763.55 277.2 794.49 250.3 811.38 114.54 806.2 -32.28 781.91 -115.73 732.39 -88.58 662.1 22.09 592.17 175.88 528.42 312 491.54 399.73 500.63 436.75 559.19 428.57 663.24 399.99 788.82 353.72 907.63 316.96 982.94 299.49 990.66 282.87 924.21 287.37 801.77 313.19Q801.77 313.19 801.77 313.19" opacity="0.81"></path><path d="M767.72 573.05C646.73 596.52 552.14 631.69 507.22 673.11 520.82 708.79 582.82 738.87 671.22 750.13 768.85 739.46 846.55 695.75 889.75 618.16 896.7 534.92 865.01 455.39 805.54 416.2 725.17 447.84 638.34 554.14 555.96 712.66 476.32 857.89 409.96 931.4 357.39 886.3 311.79 747.58 276.3 586.31 247.5 506.71 221.15 570.89 197.01 745.41 173.54 916.84 150.07 962.84 128.37 852.43 110.46 668.3 94.99 525.32 87.78 507.06 92.7 606.77 104.6 764.1 132.3 882.76 175.77 908.2 221.97 835.83 275.1 700.22 324.71 557.75 353.41 441.39 357.28 382.63 325.88 376.05 258.25 412.58 159.49 466.62 44.65 516.41 -98.62 583.22 -78.18 609.03 87.72 580.51 200.66 557.04 274.05 521.31 291.51 471.28 250.77 417.33 169.5 343.8 73.41 251.73 -19.75 161.26 -82.81 68.56 -105.69 -4.13 -89.56 -33.73 -37.4 -8.67 37.15 76.91 127.21 188.62 217.11 296.41 297.43 344.34 370.73 294.46 428.58 154.75 472.45 -19.78 508.16 -136.69 535.41 -131.8 558.45 2.11 578.97 177.19 600.04 282.84 623.51 236.84 646.98 65.41 671.74 -104.35 695.49 -159.47 716.72 -70.81 732.18 103.81 737.15 259.74 733.95 322.04 714.77 269.58 677.65 148.79 633.5 14.71 577.31 -63.75 518.01 -64.62 474.2 5.32 449.86 118.54 458.16 237.96 505.47 351.73 589.57 434.1 699.94 485.44 813.24 514.86 907.87 527.47 957.69 536.06 949.31 538.9 880.7 549.57 767.77 573.04Q767.72 573.05 767.72 573.05" opacity="0.43"></path><path d="M734.3 592.77C624.7 613.89 533.93 624.43 480.5 622.03 473.3 615.97 508.77 591.48 573.79 547.23 658.12 500.68 739.06 443.31 802.07 390.34 844.08 366.93 855.37 380.92 839.08 447.62 799.91 557.69 744.24 695.92 681.35 822.65 611.29 889.77 544.49 871.51 485.44 765.31 427.47 622.2 379.04 503 340.41 476.33 302.87 565.81 273.48 730.98 252.36 882.73 231.23 931.64 219.37 850.35 217.07 691.58 215.86 537.02 225.87 463.41 247.22 493.5 269.66 606.88 301.68 741.1 339.18 837.81 369.51 869.58 394.85 824.77 406.34 728.61 394.94 603.55 358.6 486.72 294.6 398.03 209.59 337.65 109.7 310.62 9.89 305.01 -70.61 316.87 -118.1 331.61 -119.05 339.03 -73.78 349.25 12.7 345.33 122.3 324.21 225.2 303.09 298.02 265.76 327.19 215.71 308.52 168.45 251.67 115.28 173.45 66.8 85.34 35.8 10.16 28.02 -39.98 55.83 -63.76 111.94 -55.51 198.45 -21.31 295.82 33.95 364.31 101.21 384.09 171.15 330.36 244.85 211.66 311.85 58.5 369.04 -70.37 423.38 -115.97 467.86 -54.43 503.28 91.96 537.22 242.59 564.57 319.63 585.69 270.78 620.89 7.88 570.57 341.68 513.32 315.18 475.94 210.45 439.01 97.27 411.43 14.88 404.91 -24.13 421.71 -7.79 467.49 48.16 539.64 133.69 633.77 225.85 737.36 309.01 831.06 389.87 899.94 452.79 926.76 498.69 905.74 540.93 837.2 571.64 734.3 592.77Q734.3 592.77 734.3 592.77" opacity="0.82"></path><path d="M699.71 345.11C601.82 363.88 516.92 366.84 459.04 356.3 435.84 347.54 447.59 329.8 487.48 310.58 550.45 303.98 620.82 310.72 686.66 342.45 745.64 401.37 785.59 491.08 804.61 604.38 806.36 715.23 789.74 807.77 760.21 852.46 719.97 833.52 674.73 750.36 629.72 624.87 581.55 508.45 538.04 441.41 501.81 460.51 465.24 565.06 436.92 716.65 418.14 848.89 399.36 898.96 391.02 844.12 392.17 715.52 397.67 512.44 437.59 520.29 456.06 680.12 456.64 775.21 446.31 821.97 419.94 816.32 376.31 764.94 314.1 683.21 235.56 592.2 150.17 495.98 62.96 414.06 -13.76 350.95 -67.42 297.85 -89.85 260.62 -73.89 233.93 -23.26 211.2 57.82 191.86 155.71 173.08 248.4 154.31 319.11 136.98 357.1 124.29 357.72 115.57 325.16 118.64 269.33 139.2 196.54 169.76 123.77 220.76 62.11 288.04 -0.19 377.49 11.56 378.18 67.94 229.03 118.22 99.08 170.56 -16.62 220.08 -76.43 271.49 -56.69 316.59 40.87 353.42 182.57 390.18 303.93 418.46 354.96 437.24 304.89 456.02 172.65 464.42 24.86 463.07 -72.43 461.66 -84.29 450.72 -6.56 431.85 123.61 414.87 262.86 393.46 362.87 372.11 401.36 360.03 376.22 356.26 305.95 366.87 219.71 395.82 131.02 444.58 68.26 513.18 38.29 594.39 35.49 684 59.69 770.56 98.82 840.15 150.58 883.41 202.48 890.06 246.66 859.33 292.61 792.44 326.32 699.76 345.1Q699.71 345.11 699.71 345.11" opacity="0.32"></path><path d="M665.76 173.5C502.14 206.36 408.9 240.79 415.98 308.59 508.99 412.39 623.45 579.78 705.57 752.08 753.97 813.53 748.08 706.12 711.71 490.38 658.27 405.2 606.49 565.8 573.63 814.88 540.77 832.71 529.94 602.26 526.43 409.14 505.85 428.86 460.46 600.18 368.99 737.81 243.8 773.19 94.49 692.43 -22.6 582.94 -53.77 455.78 26.14 369.34 189.76 336.48 337.93 303.62 395.42 327.45 353.39 397.66 238.35 450.2 123.02 479.67 54.61 401.23 29.7 220.53 57.86 14.35 109.26 -29.44 176.09 139.58 234.19 356.71 267.05 338.88 299.92 89.8 304.43 -57.47 294.54 51.79 300.09 291.61 323.22 433.87 391.2 415.49 502.67 286.26 652.86 170.16 791.98 123.31 858.1 112.46 813.93 140.64 665.76 173.5Q665.76 173.5 665.76 173.5" opacity="0.35"></path><path d="M631.72 315.96C488.74 344.13 390.49 417.08 363.63 527.73 407.12 631.4 487.27 733 564.77 763.43 657.72 615.07 665.29 480.87 626.06 780.84 597.9 815.99 566.35 645.91 523.64 443.02 469.28 350.71 386.96 411.15 276.27 533.49 106.84 687.58 37.32 640.85 223.72 588.02 355.24 559.85 425.46 555.52 421.25 547.59 351.43 506.88 258.53 409.08 181 245 117.03 85.74 92.64 -4.57 98.98 67.05 118.04 249.28 147.52 407.97 175.68 372.89 203.85 162.13 228.04 -4.89 257.79 10.34 300.25 179.46 368.59 369.92 469.47 474.93 583.92 481.41 706.7 423.77 797.18 368.92 822.05 307.08 763.27 287.79 631.77 315.95Q631.72 315.96 631.72 315.96" opacity="0.53"></path><path d="M597.72 574.96C476.74 598.43 381.47 643.43 332.34 688.82 332.45 711.79 368.64 694.22 417.68 612.2 479.71 501.12 526.84 380.4 550.09 329.65 570 401.73 567.86 575.42 544.39 746.84 520.92 792.84 478.34 684.06 417.75 511.01 353.82 362.64 270.06 309.04 177.27 337.17 97.46 423.12 36.38 507.55 19.06 556.95 50.99 597.22 136.74 602.16 257.72 578.69 370.66 555.22 445.35 505.55 469.42 424.61 443.86 334.54 389.05 213.48 330.12 96.76 264.81 37.86 220.17 66.55 201.25 197.69 187.61 353.54 193.96 452.82 217.43 406.89 240.89 235.48 279.26 71.27 333.57 16.37 393.16 84.3 474.43 229.92 570.51 371.77 660.21 484.57 739.92 538.77 782.7 556.47 775.85 551.76 710.69 551.48 597.77 574.95Q597.72 574.96 597.72 574.96" opacity="0.09"></path><path d="M563.98 591.24C466.08 610.02 380.96 608.84 322.24 582.26 292.24 547.32 288.86 479.89 301.7 392.69 330.36 326.61 358.19 292.49 374.89 326.41 393.59 430.38 395.56 580.53 376.79 712.79 358.01 762.91 320.25 708.58 269.01 589.66 219.77 448.05 162.63 336.73 109.36 276.59 71.91 261.26 55.38 277.69 71.61 298.35 116.57 328.99 194.08 340.25 291.98 321.47 384.63 302.69 455.86 255.66 496.4 192.48 505.58 139.28 490.4 93.54 463.72 84.26 424.04 119.79 389.97 211.19 370.56 339.03 350.55 444.19 348.46 490.91 367.24 440.79 386.01 308.53 423.89 165.99 476.44 75.78 528.39 55.63 591.76 109.67 656.06 200.36 707.34 312.17 742.44 408.91 747.03 476.39 720.25 535.51 656.63 572.46 563.98 591.24Q563.98 591.24 563.98 591.24" opacity="0.33"></path><path d="M529.72 342.3C386.74 370.47 285.71 310.95 245.15 249.98 245.78 288.85 251.49 468.07 223.32 678.84 195.15 713.99 138.44 549.08 100.9 378.95 104.54 250.69 182.74 201.36 325.72 173.19 457.25 145.02 531.88 143.35 548.94 234.7 525.89 367.91 508.67 509.99 536.84 474.84 565 264.07 633.23 107.68 693.19 105.73 713.04 203.62 661.25 314.13 529.72 342.3Q529.72 342.3 529.72 342.3" opacity="0.25"></path><path d="M495.77 173.32C313.13 210.88 211.97 359.64 174.42 644.83 136.86 639.62 177.13 376.98 359.77 339.42 522.51 301.87 587.42 503.62 624.98 508.83 662.53 223.64 658.51 135.77 495.77 173.32Q495.77 173.32 495.77 173.32" opacity="0.43"></path></g></svg>